<svg width="20" height="20" viewBox="0 0 20 20" fill="none" xmlns="http://www.w3.org/2000/svg">
<g opacity="0.72">
<circle cx="10" cy="10" r="9.5" stroke="#E8DAC1"/>
<mask id="mask0" mask-type="alpha" maskUnits="userSpaceOnUse" x="0" y="0" width="20" height="20">
<circle cx="10" cy="10" r="10" fill="#C4C4C4"/>
</mask>
<g mask="url(#mask0)">
<path d="M30.3335 24.167C30.3335 26.621 28.201 28.9954 24.3966 30.7857C20.6315 32.5575 15.3948 33.667 9.5835 33.667C3.77222 33.667 -1.46446 32.5575 -5.22962 30.7857C-9.034 28.9954 -11.1665 26.621 -11.1665 24.167C-11.1665 21.713 -9.034 19.3386 -5.22962 17.5483C-1.46446 15.7765 3.77222 14.667 9.5835 14.667C15.3948 14.667 20.6315 15.7765 24.3966 17.5483C28.201 19.3386 30.3335 21.713 30.3335 24.167Z" stroke="#E8DAC1"/>
<path d="M30.3335 -4.16699C30.3335 -1.713 28.201 0.661372 24.3966 2.45167C20.6315 4.22351 15.3948 5.33301 9.5835 5.33301C3.77222 5.33301 -1.46446 4.22351 -5.22962 2.45167C-9.034 0.661372 -11.1665 -1.713 -11.1665 -4.16699C-11.1665 -6.62098 -9.034 -8.99536 -5.22962 -10.7857C-1.46446 -12.5575 3.77222 -13.667 9.5835 -13.667C15.3948 -13.667 20.6315 -12.5575 24.3966 -10.7857C28.201 -8.99536 30.3335 -6.62098 30.3335 -4.16699Z" stroke="#E8DAC1"/>
</g>
<path d="M14.5 10C14.5 12.7006 13.9516 15.1209 13.0883 16.8475C12.2101 18.604 11.0893 19.5 10 19.5C8.9107 19.5 7.78993 18.604 6.91168 16.8475C6.04839 15.1209 5.5 12.7006 5.5 10C5.5 7.29937 6.04839 4.87912 6.91168 3.15254C7.78993 1.39605 8.9107 0.5 10 0.5C11.0893 0.5 12.2101 1.39605 13.0883 3.15254C13.9516 4.87912 14.5 7.29937 14.5 10Z" stroke="#E8DAC1"/>
<line y1="9.5" x2="20" y2="9.5" stroke="#E8DAC1"/>
</g>
</svg>
