<svg xmlns="http://www.w3.org/2000/svg" fill="none" viewBox="0 0 23 16"><defs/><path fill="#E8DAC1" fill-rule="evenodd" d="M20.1313.471924c.9747.262207 1.7359 1.023436 1.9981 1.998046.4727 1.76294.4727 5.44043.4727 5.44043s0 3.6775-.4727 5.4402c-.2622.9746-1.0234 1.7358-1.9981 1.9978-1.7626.4726-8.831.4726-8.831.4726s-7.06739 0-8.8296-.4726c-.97461-.262-1.736325-1.0232-1.998044-1.9978C0 11.5879 0 7.90991 0 7.90991s0-3.677.472656-5.43994C.734863 1.49536 1.49609.734131 2.4707.471924 4.23291 0 11.3008 0 11.3008 0s7.0679 0 8.8305.471924zM14.9126 7.9104L9.04053 11.301V4.52002L14.9126 7.9104z" clip-rule="evenodd"/></svg>