<svg xmlns="http://www.w3.org/2000/svg" fill="none" viewBox="0 0 22 22"><defs/><path fill="#E8DAC1" d="M0 11c0 4.6961 2.94342 8.7056 7.08583 10.2832-.10083-.8589-.20808-2.2752.02292-3.2689.19892-.8543 1.28425-5.4431 1.28425-5.4431s-.32725-.6555-.32725-1.6262c0-1.52167.88183-2.65833 1.98095-2.65833.935 0 1.386.70125 1.386 1.54183 0 .9396-.5986 2.3439-.9075 3.6465-.2576 1.0899.5472 1.9791 1.6216 1.9791 1.946 0 3.443-2.0524 3.443-5.0151 0-2.62258-1.8847-4.455-4.5751-4.455-3.11487 0-4.94362 2.33658-4.94362 4.752 0 .9414.36209 1.9498.81492 2.4988.03861.0415.06589.0922.07921.1473.01333.055.01225.1126-.00313.1672-.08341.3465-.26858 1.0899-.30433 1.242-.04858.1999-.15858.243-.36667.1458-1.36766-.6362-2.222-2.6354-2.222-4.2414 0-3.45495 2.50892-6.62662 7.23432-6.62662 3.7987 0 6.7513 2.70692 6.7513 6.32412 0 3.7739-2.3788 6.8117-5.6824 6.8117-1.1101 0-2.1524-.5775-2.50988-1.2586 0 0-.54909 2.0919-.682 2.6034-.2585.9936-.97534 2.2513-1.41992 2.9654C8.78533 21.8304 9.8725 22 11 22c6.0748 0 11-4.9252 11-11 0-6.07475-4.9252-11-11-11C4.92525 0 0 4.92525 0 11z"/></svg>