<svg xmlns="http://www.w3.org/2000/svg" width="72" height="16" viewBox="0 0 72 16">
    <path fill="#E8DAC1" fill-rule="nonzero"
          d="M21.1205.472c.91369.2458 1.63982.93022 1.94306 1.81784l.05494.18016c.42715 1.59381.46815 4.7522.47208 5.3438l.0003.13843c-.00173.41048-.02941 3.74593-.47238 5.39827-.2621.9746-1.0234 1.7359-1.998 1.998-1.51487.406-6.94657.46314-8.44549.47118l-.6303.00067c-1.26027-.00518-7.01853-.05185-8.5852-.47185-.97462-.2621-1.7359-1.0234-1.998-1.998-.41173-1.53583-.46468-4.52616-.4715-5.2699l-.0006-.26295c.00376-.58027.0439-3.74993.4721-5.34765.26218-.97457 1.02343-1.73582 1.998-1.998 1.59553-.42728 7.5389-.46776 8.6507-.4716h.35956c1.11173.00384 7.05475.04432 8.65073.4716zM35.695 4.58156c.7325 0 1.32.1515 1.7615.453.4415.302.765.7735.97 1.4145.2045.641.307 1.495.307 2.562v1.43854c0 1.056-.1 1.9045-.299 2.545-.2.6415-.523 1.11-.97 1.4065-.447.2965-1.053.445-1.818.445-.69956 0-1.26479-.1197-1.6957-.35806l-.1548-.09494c-.4475-.3015-.7655-.77-.954-1.406-.1885-.636-.283-1.4815-.283-2.5375V9.01106c0-1.067.108-1.924.3235-2.57.215-.647.552-1.118 1.01-1.4145.458-.2965 1.0585-.445 1.8025-.445zm6.4255.1945v7.27354c0 .442.049.757.1455.945.097.189.259.283.485.283.194 0 .38-.059.5575-.178.1714-.111.3086-.2675.396-.452V4.77606h2.2305v9.90804H44.19l-.1945-1.2125h-.0485c-.474.916-1.185 1.374-2.1335 1.374-.657 0-1.142-.215-1.455-.6465-.312-.431-.4685-1.1045-.4685-2.02V4.77606h2.2305zm11.441 0v7.27354c0 .442.0485.757.1455.945.0975.189.259.283.485.283.194 0 .38-.059.5575-.178.1716-.111.3089-.2675.3965-.452V4.77606h2.23l.0005 9.90804h-1.746l-.194-1.2125h-.048c-.475.916-1.1855 1.374-2.134 1.374-.657 0-1.142-.215-1.4545-.6465-.3125-.431-.4685-1.1045-.4685-2.02V4.77606h2.23zm15.42-.1865c.765 0 1.3525.14 1.762.42.409.28.6975.717.865 1.3095.1665.5925.25 1.4115.25 2.4565v1.69704H68.125v.5015c0 .6355.0185 1.1125.0565 1.43.0375.318.1155.55.2345.695.1185.146.3015.2185.55.2185.3335 0 .5625-.129.6865-.388.1235-.2585.191-.6895.202-1.293l1.9235.113c.0105.0865.016.205.016.356 0 .9155-.25 1.6-.7515 2.0525-.501.4525-1.21.679-2.1255.679-1.099 0-1.87-.345-2.3115-1.035-.442-.689-.6625-1.756-.6625-3.2V8.87256c0-1.487.229-2.5725.687-3.257.458-.684 1.242-1.026 2.3515-1.026zM60.871.62146v5.221h.016a2.36227 2.36227 0 01.825-.913 2.06485 2.06485 0 011.1475-.3475c.5275 0 .9425.14 1.244.42.302.2805.52.7325.655 1.3575.12105.56295.18783 1.32151.19998 2.27679l.00202.32571V10.53c0 1.476-.178 2.5615-.533 3.257-.356.6945-.911 1.042-1.665 1.042-.4205 0-.803-.0965-1.148-.2905a1.89352 1.89352 0 01-.69526-.652l-.08024-.14h-.0485l-.2265.937h-1.8425V.62146h2.1495zm-32.8295.5011l.889 4.154c.2265 1.024.393 1.8965.501 2.6185h.065c.075-.517.242-1.3845.5005-2.602l.9215-4.17h2.2145l-2.57 9.16404v4.397h-2.199v-4.397l-2.537-9.16454h2.2145zm23.955.0004v1.794h-2.215V14.684H47.6V2.91696h-2.2145v-1.794h6.611zM35.646 6.11756c-.3015 0-.5145.1645-.638.493-.124.3285-.186.8485-.186 1.56v3.08704c0 .7325.059 1.2605.178 1.584.118.323.3335.485.6465.485.312 0 .53-.162.6545-.485v-.0005c.1235-.323.1855-.851.1855-1.5835V8.17006c0-.711-.062-1.231-.1855-1.56-.124-.328-.3425-.4925-.655-.4925zm26.211.0489c-.2155 0-.4145.0865-.598.2585-.1464.138-.25856.30704-.33622.50686l-.05178.15564v5.62504a.97418.97418 0 00.38.388c.156.0865.326.129.5095.129.2365 0 .4255-.086.5655-.2585.14-.172.2395-.463.299-.873.05163-.35787.08105-.83595.0876-1.43356l.0014-.26344V9.12446c0-.776-.0245-1.3745-.073-1.7945-.0485-.42-.135-.719-.2585-.897-.124-.1775-.299-.2665-.5255-.2665zm-51.82746-1.6464v6.78054l5.87196-3.39004-5.87196-3.3905zm58.90396 1.5725c-.2375 0-.4125.07-.5255.21-.113.14-.189.3695-.2265.687-.03325.27825-.05157.68206-.05563 1.21177l-.00087.94623h1.6325v-.7115c0-.635-.0215-1.1175-.065-1.4465-.043-.3285-.121-.56-.234-.695-.113-.1345-.2885-.202-.525-.202z"/>
</svg>