<svg xmlns="http://www.w3.org/2000/svg" viewBox="0 0 274.39 400.09">
    <title>frame</title>
    <path
        d="M17.67,39.42l-8.53.16c.81,6.31,3.48,12.34,2.07,18.92a10.21,10.21,0,0,0-.06,2.92c.28,3.87.51,7.75,1,11.61a48.45,48.45,0,0,0,1.34,5.69A19.58,19.58,0,0,0,12.85,91c1.53,5.14,2.76,10.37,3.78,15.63s1.68,10.81,2.46,16.23c1,7,1.72,14,4.29,20.84,1.69,4.49,2.06,9.45,3.05,14.2.62,3.24,1.35,6.55,2.28,10.9-.26,8.61-.2,18.28,1.72,27.88a100.12,100.12,0,0,1,1.62,10c.14,1.53-.45,3.14-.37,4.64.53,6.58,1,13.16,1.58,19.73.18,2.09.46,4.17.69,6.25.07.64.39,1.37.19,1.91-1.57,4.18,0,8.07,1.33,11.84,1.49,4.41,1.49,8.9,2,13.39.42,4.16,1.51,8.26,1.86,12.42.55,6.59.89,13.21,1,19.82,0,3.2-.94,6.41-.91,9.62a159,159,0,0,0,.92,17.45c.47,4,1.89,7.83,2.89,11.74a31.12,31.12,0,0,1,1.16,4.66c.61,6.73.54,13.51,3.54,19.9a15.29,15.29,0,0,1,.73,10.47c-.54,2.11-.12,4.47,0,6.72.2,1.11.35,2.23.44,3.36-.39,5.78,2.11,10.67,4.41,14.88l.1,13.42c3.64,2.38,1.75-3.83,11.67-1.38a6,6,0,0,0,1.8.05c2.39-.19,4.78-.34,7.16-.64a25.13,25.13,0,0,0,3.51-.91,10.81,10.81,0,0,0,7.53.48A92.42,92.42,0,0,1,94.88,404c3.31-.71,6.67-1.14,10-1.67,4.33-.68,8.66-1.15,12.86-2.91,2.76-1.17,5.83-1.41,8.76-2.08l6.74-1.59a67.58,67.58,0,0,0,17.15-1.12,54.63,54.63,0,0,1,6.2-1.06c.94-.1,1.94.32,2.82.26l12.17-1c1.28-.11,2.57-.3,3.85-.45.39,0,.84-.27,1.17-.13,2.57,1.1,5,0,7.3-.89,2.72-1,5.49-1,8.27-1.31,2.56-.28,5.09-1,7.66-1.26,4.06-.36,8.13-.58,12.23-.63,2,0,4,.67,5.93.65a87.8,87.8,0,0,0,10.75-.58,52.25,52.25,0,0,0,7.25-2,17.66,17.66,0,0,1,2.87-.79c4.15-.41,8.33-.33,12.23-2.4a8.41,8.41,0,0,1,6.45-.47,13.07,13.07,0,0,0,4.14,0,18.43,18.43,0,0,1,2.07-.3c3.56.29,6.59-1.43,9.19-3,1.66-.37,2.92-.58,4.15-.93,2.43-.72,4.13-.3,6.33,1.88v-9.93l.1,10.34V9.42c-2,3-5.37,3.92-8.45,3.82-1.54-.06-3.08.06-5.16.12-3.5-1-7.53-2.06-11.68-.76a24.19,24.19,0,0,1-2.55.25c-1.66.32-3.46.41-4.91,1.19A11.15,11.15,0,0,1,243,15.31c-5.2-1.17-10.2.07-15.2.77a23,23,0,0,1-3.62-.07c-3-.08-6.12-.48-9.12-.15a116.14,116.14,0,0,0-13,2.42c-2.35.53-4.52,1.84-6.87,2.36q-7.31,1.61-14.68,2.68c-3.11.46-6.31.35-9.43.75-3.37.44-6.66,1.22-10.15.85-3-.37-6.13-.92-8.91,1-.36.25-.95.13-1.43.19-1.57.18-3.14.33-4.69.57-4.91.72-9.82,1.48-14.73,2.23-1.11.19-2.18.92-3.33,1.08a72.48,72.48,0,0,1-7.64.55,89.24,89.24,0,0,0-20.71,3.51c-3.36.06-5.91.08-8.47.12-3.66.07-7.35.65-11,.15-5.41-.77-10.68-.09-16,.37-4.11.4-8.21.85-12.33,1a119.3,119.3,0,0,1-12.11-.15,14.27,14.27,0,0,0-8.9,2.59,36,36,0,0,0-4.41,0c-2.9.29-5.79.83-8.67,1.29-.73.08-3.66-1.54-4.34-1.25-4.56,2.22,3.11,4-1.66,4.5l2.9,11.66"
        transform="translate(-9.14 -9.42)"/>
</svg>
